<svg width="40" height="40" viewBox="0 0 40 40" fill="none" xmlns="http://www.w3.org/2000/svg">
  <path d="M23 19C23.5523 19 24 19.4477 24 20C24 20.5523 23.5523 21 23 21V19ZM9.29289 20.7071C8.90237 20.3166 8.90237 19.6834 9.29289 19.2929L15.6569 12.9289C16.0474 12.5384 16.6805 12.5384 17.0711 12.9289C17.4616 13.3195 17.4616 13.9526 17.0711 14.3431L11.4142 20L17.0711 25.6569C17.4616 26.0474 17.4616 26.6805 17.0711 27.0711C16.6805 27.4616 16.0474 27.4616 15.6569 27.0711L9.29289 20.7071ZM23 21L10 21L10 19L23 19V21Z" fill="#121212"/>
</svg>
